<?xml version="1.0" encoding="UTF-8"?>
<svg version="1.1" xmlns="http://www.w3.org/2000/svg" width="100" height="100">
<path d="M0 0 C8.87509994 7.23661995 14.83654034 17.79376512 17 29 C18.72940532 46.43507768 15.43788465 60.12128311 4.4140625 73.99609375 C-3.81286908 83.00558711 -15.56118495 88.6401856 -27.6484375 89.3125 C-44.15065677 89.87587591 -57.4333568 86.19793139 -69.8125 74.6875 C-80.67627782 62.99204541 -83.9240064 49.32485699 -83.3828125 33.7890625 C-82.59472826 21.12519315 -76.51709179 9.5456934 -67.328125 0.8828125 C-47.06844863 -15.50169087 -20.72511113 -15.47824755 0 0 Z M-13.8125 9.5 C-16.30948169 11.90549983 -16.30948169 11.90549983 -16.5625 15.5625 C-16.31075897 19.00021099 -16.31075897 19.00021099 -14.25 21 C-12.06049869 22.21021767 -12.06049869 22.21021767 -9.75 21.6875 C-9.1725 21.460625 -8.595 21.23375 -8 21 C-8.515625 20.5875 -9.03125 20.175 -9.5625 19.75 C-11 18 -11 18 -10.9375 16.125 C-9.71462088 13.35314066 -7.96855953 11.28606913 -6 9 C-9.39612106 7.83561564 -10.58337597 7.77780052 -13.8125 9.5 Z M-5 12 C-6.38232443 13.62626404 -7.71937515 15.2925002 -9 17 C-8.01 17.99 -7.02 18.98 -6 20 C-5.01 19.67 -4.02 19.34 -3 19 C-3.66 18.67 -4.32 18.34 -5 18 C-5 16.68 -5 15.36 -5 14 C-4.34 14 -3.68 14 -3 14 C-3 13.34 -3 12.68 -3 12 C-3.66 12 -4.32 12 -5 12 Z M-3 14 C-2 17 -2 17 -2 17 Z M-26.1875 23 C-26.96351562 23.63035156 -27.73953125 24.26070312 -28.5390625 24.91015625 C-32.42061249 28.20639314 -36.23409352 31.5724019 -40 35 C-39.34 36.32 -38.68 37.64 -38 39 C-31.59375408 33.73264225 -25.81325215 27.90001711 -20 22 C-19.34 21.34 -18.68 20.68 -18 20 C-22.41086897 20 -22.94405808 20.35325686 -26.1875 23 Z M-21.1328125 25.8671875 C-21.93847656 26.67027344 -22.74414062 27.47335938 -23.57421875 28.30078125 C-24.41597656 29.15027344 -25.25773437 29.99976563 -26.125 30.875 C-26.97449219 31.71675781 -27.82398438 32.55851562 -28.69921875 33.42578125 C-29.50230469 34.23144531 -30.30539063 35.03710938 -31.1328125 35.8671875 C-31.87418457 36.61081543 -32.61555664 37.35444336 -33.37939453 38.12060547 C-35.21768027 39.83883596 -35.21768027 39.83883596 -35 42 C-31.46324349 40.47147075 -29.00435254 38.3583611 -26.1875 35.75 C-22.18865927 32.08291494 -18.13824736 28.50851407 -14 25 C-14.33 24.01 -14.66 23.02 -15 22 C-18.04419181 22 -19.01169602 23.75250561 -21.1328125 25.8671875 Z M-22.3125 34.8125 C-25.44420654 37.71006025 -28.52710231 40.51700189 -32 43 C-31.67 43.99 -31.34 44.98 -31 46 C-27.45036146 44.48451505 -25.10041265 42.39924001 -22.375 39.6875 C-21.59898438 38.92824219 -20.82296875 38.16898438 -20.0234375 37.38671875 C-17.98392289 34.98103646 -16.97970258 32.97597826 -16 30 C-18.2781966 30 -20.64593397 33.26235644 -22.3125 34.8125 Z M-43 38 C-43.99 39.485 -43.99 39.485 -45 41 C-43.35 41 -41.7 41 -40 41 C-40.33 40.01 -40.66 39.02 -41 38 C-41.66 38 -42.32 38 -43 38 Z M-45.6484375 50.2578125 C-46.90102569 51.53677096 -48.14303503 52.82616428 -49.375 54.125 C-50.01566406 54.78371094 -50.65632813 55.44242188 -51.31640625 56.12109375 C-52.88709883 57.73867268 -54.44765097 59.36484203 -56 61 C-55.34 62.32 -54.68 63.64 -54 65 C-53.95875 64.38125 -53.9175 63.7625 -53.875 63.125 C-53.58625 62.42375 -53.2975 61.7225 -53 61 C-51.00378176 60.32209352 -49.00306387 59.65740366 -47 59 C-45.08971319 57.91401503 -43.21324282 56.76641959 -41.375 55.5625 C-40.45460938 54.96566406 -39.53421875 54.36882812 -38.5859375 53.75390625 C-36.33717418 52.22868763 -34.15492738 50.6541344 -32 49 C-32.66 47.68 -33.32 46.36 -34 45 C-38.92299053 45 -42.20047845 46.93735325 -45.6484375 50.2578125 Z M-59 64 C-59.99 65.485 -59.99 65.485 -61 67 C-59.02 67 -57.04 67 -55 67 C-55.66 66.01 -56.32 65.02 -57 64 C-57.66 64 -58.32 64 -59 64 Z " fill="#EA5706" transform="translate(83,11)"/>
</svg>
